Coordinates
version=1
nRows=11
nColumns=46
inDegrees=yes

Units are S.I. units (second, meters, Newtons, ...)
Angles are in degrees.

endheader
time	pelvis_tilt	pelvis_list	pelvis_rotation	pelvis_tx	pelvis_ty	pelvis_tz	bb_angle	bb_tx	bb_ty	bb_tz	hip_flexion_r	hip_adduction_r	hip_rotation_r	knee_angle_r	knee_angle_r_beta	ankle_angle_r	subtalar_angle_r	mtp_angle_r	crank_angle_r	hip_flexion_l	hip_adduction_l	hip_rotation_l	knee_angle_l	knee_angle_l_beta	ankle_angle_l	subtalar_angle_l	mtp_angle_l	crank_angle_l	lumbar_extension	lumbar_bending	lumbar_rotation	arm_flex_r	arm_add_r	arm_rot_r	elbow_flex_r	pro_sup_r	wrist_flex_r	wrist_dev_r	arm_flex_l	arm_add_l	arm_rot_l	elbow_flex_l	pro_sup_l	wrist_flex_l	wrist_dev_l
      0.00000000	    -13.51905929	     -3.91760166	      0.36864619	      0.08009964	      1.09665770	     -0.27806639	      0.00000000	      0.50000000	      0.00000000	      0.25000000	     78.67602015	     -3.48721926	     -1.43429534	     90.04159405	      1.57152228	     16.15958442	     -5.95085261	      0.00000000	      0.00000000	     44.03004006	    -10.24298050	     -0.69565417	     66.97910667	      1.16900594	     13.09162649	     -2.29833761	      0.00000000	      0.00000000	    -49.91553229	      1.53319135	      2.45436551	     88.82058416	    -12.29747096	     44.98191430	     25.53935865	     33.68899944	      0.00000000	      0.00000000	     88.08001827	    -13.11942717	     27.53534170	     48.19678094	     33.96341939	      0.00000000	      0.00000000
      0.00500000	    -13.58887127	     -3.81741996	      0.36023235	      0.08011599	      1.09654376	     -0.27802706	      0.00000000	      0.50000000	      0.00000000	      0.25000000	     78.78452977	     -3.50759171	     -1.34362303	     90.07641676	      1.57213005	     16.04634315	     -6.19236816	      0.00000000	      0.00000000	     44.07765003	    -10.12804408	     -0.73469596	     66.95306195	      1.16855138	     12.98668845	     -2.56296648	      0.00000000	      0.00000000	    -49.79800733	      1.48205273	      2.36630687	     88.81229457	    -11.94515797	     45.04305227	     24.90496818	     34.07623271	      0.00000000	      0.00000000	     88.22236136	    -13.17514585	     27.80431856	     47.73879878	     34.46087747	      0.00000000	      0.00000000
      0.01000000	    -13.52901579	     -3.80809909	      0.33727640	      0.08019396	      1.09663408	     -0.27791386	      0.00000000	      0.50000000	      0.00000000	      0.25000000	     78.72159208	     -3.49424865	     -1.34162297	     90.08605523	      1.57229827	     16.07124291	     -6.07408798	      0.00000000	      0.00000000	     44.00537577	    -10.16542897	     -0.77716179	     66.97608498	      1.16895320	     13.06758221	     -2.39003802	      0.00000000	      0.00000000	    -49.90752256	      1.40822549	      2.47119774	     88.72877582	    -12.06941686	     43.91988462	     25.31050326	     34.78787379	      0.00000000	      0.00000000	     88.27691301	    -13.03719975	     27.64785078	     47.61850871	     35.24472081	      0.00000000	      0.00000000
      0.01500000	    -13.67722326	     -3.82903829	      0.40766670	      0.08014628	      1.09656142	     -0.27813460	      0.00000000	      0.50000000	      0.00000000	      0.25000000	     78.83208676	     -3.58558082	     -1.40639220	     90.00835592	      1.57094217	     16.08563930	     -6.11564408	      0.00000000	      0.00000000	     44.17826873	    -10.02842583	     -0.59130347	     66.95756329	      1.16862994	     12.96529802	     -2.66148049	      0.00000000	      0.00000000	    -49.73816009	      1.49854218	      2.37093819	     88.76532030	    -11.86861209	     44.00673443	     24.84199427	     35.02987317	      0.00000000	      0.00000000	     88.30438854	    -13.06478968	     27.39348112	     47.83218331	     35.56598713	      0.00000000	      0.00000000
      0.02000000	    -13.62443547	     -3.85960969	      0.41673136	      0.08012568	      1.09672613	     -0.27805785	      0.00000000	      0.50000000	      0.00000000	      0.25000000	     78.77868826	     -3.60310830	     -1.47355653	     90.03808596	      1.57146105	     16.12090422	     -6.17197718	      0.00000000	      0.00000000	     44.13368855	    -10.07620513	     -0.58113280	     66.96822239	      1.16881597	     12.99578039	     -2.57109506	      0.00000000	      0.00000000	    -49.84698284	      1.51750847	      2.34516718	     88.72204145	    -11.92315077	     43.32464444	     25.26561440	     35.42715501	      0.00000000	      0.00000000	     88.28448924	    -13.12832907	     27.14347093	     47.89796199	     35.97979199	      0.00000000	      0.00000000
      0.02500000	    -13.57327480	     -3.91487592	      0.45291426	      0.08011553	      1.09687362	     -0.27806259	      0.00000000	      0.50000000	      0.00000000	      0.25000000	     78.69658476	     -3.60581159	     -1.52470636	     90.00448297	      1.57087457	     16.08276497	     -6.25313623	      0.00000000	      0.00000000	     44.09783284	    -10.09104453	     -0.49029980	     66.97811595	      1.16898865	     13.04021114	     -2.58149023	      0.00000000	      0.00000000	    -49.99325509	      1.55800659	      2.32614594	     88.63981252	    -12.04426419	     42.48911515	     25.94993833	     35.73208345	      0.00000000	      0.00000000	     88.19291985	    -13.17502698	     26.60880409	     48.44072695	     36.33999455	      0.00000000	      0.00000000
      0.03000000	    -13.78720617	     -3.83652664	      0.41718514	      0.08006375	      1.09647823	     -0.27793308	      0.00000000	      0.50000000	      0.00000000	      0.25000000	     78.96035008	     -3.57608070	     -1.40752877	     90.01095773	      1.57098758	     16.01146328	     -6.31659675	      0.00000000	      0.00000000	     44.34137501	    -10.03631328	     -0.54418772	     67.01522373	      1.16963630	     12.92274928	     -2.68650060	      0.00000000	      0.00000000	    -49.64346016	      1.49212822	      2.14369415	     88.80521669	    -11.48615386	     43.43659361	     24.31306284	     36.17935770	      0.00000000	      0.00000000	     88.21546337	    -13.48656394	     27.74850442	     47.32018761	     36.94398151	      0.00000000	      0.00000000
      0.03500000	    -13.77410101	     -3.83041014	      0.38949806	      0.08014037	      1.09652705	     -0.27778900	      0.00000000	      0.50000000	      0.00000000	      0.25000000	     78.94795829	     -3.55020230	     -1.40707236	     90.02186177	      1.57117789	     16.06919144	     -6.22795311	      0.00000000	      0.00000000	     44.30356400	    -10.07206155	     -0.57751458	     67.00565139	      1.16946923	     13.02006145	     -2.54533503	      0.00000000	      0.00000000	    -49.69094659	      1.43330235	      2.20693283	     88.75385192	    -11.62816806	     43.01689621	     24.62439507	     36.48457331	      0.00000000	      0.00000000	     88.23995858	    -13.38280153	     27.64278382	     47.22791872	     37.22950583	      0.00000000	      0.00000000
      0.04000000	    -13.67748997	     -3.86187482	      0.44124234	      0.08020790	      1.09673103	     -0.27782950	      0.00000000	      0.50000000	      0.00000000	      0.25000000	     78.82283266	     -3.62510093	     -1.52139536	     90.00392072	      1.57086476	     16.06545638	     -6.25693766	      0.00000000	      0.00000000	     44.21892220	    -10.10336370	     -0.59219639	     67.02782935	      1.16985631	     13.02806853	     -2.50922816	      0.00000000	      0.00000000	    -49.87726676	      1.47673765	      2.24347101	     88.72324103	    -11.77219520	     42.34299943	     25.13241829	     36.82031324	      0.00000000	      0.00000000	     88.22174746	    -13.35223443	     27.35150695	     47.45114698	     37.57206093	      0.00000000	      0.00000000
      0.04500000	    -13.75727624	     -3.84324948	      0.41400729	      0.08019148	      1.09655837	     -0.27765952	      0.00000000	      0.50000000	      0.00000000	      0.25000000	     78.92697763	     -3.57428685	     -1.44516917	     90.02826803	      1.57128970	     16.05063476	     -6.21009837	      0.00000000	      0.00000000	     44.30809173	    -10.10182042	     -0.56293193	     67.04034423	      1.17007474	     13.02793970	     -2.43080139	      0.00000000	      0.00000000	    -49.75469209	      1.42242184	      2.22669162	     88.72674197	    -11.69645448	     42.39128229	     24.85200220	     36.97613113	      0.00000000	      0.00000000	     88.25976305	    -13.32332833	     27.54057355	     47.12598772	     37.74811581	      0.00000000	      0.00000000
      0.05000000	    -13.89006812	     -3.82060046	      0.42497421	      0.08021393	      1.09634026	     -0.27762595	      0.00000000	      0.50000000	      0.00000000	      0.25000000	     79.09121395	     -3.59818878	     -1.43399111	     90.03763731	      1.57145322	     15.96048199	     -6.29055270	      0.00000000	      0.00000000	     44.45265392	    -10.04914688	     -0.54559853	     67.04010049	      1.17007048	     12.95251296	     -2.59582669	      0.00000000	      0.00000000	    -49.56928450	      1.38876622	      2.09745469	     88.85989538	    -12.06908944	     45.56095032	     24.56404340	     36.73160703	      0.00000000	      0.00000000	     88.16995862	    -13.52894473	     27.72580717	     47.45271487	     37.48637702	      0.00000000	      0.00000000
